<svg xmlns="http://www.w3.org/2000/svg" width="24" height="24" viewBox="0 0 24 24"><g transform="translate(-943 434.905)"><g transform="translate(935.745 -629.821)"><path d="M12.757,202.892l.793,1.285a.789.789,0,0,1,.066.681l0,.007a.791.791,0,0,1-.488.482l-1.434.474a.771.771,0,0,0-.529.767l.061,1.359a.766.766,0,0,0,.593.718l1.469.347a.78.78,0,0,1,.527.438l0,.007a.781.781,0,0,1,0,.685l-.678,1.349a.774.774,0,0,0,.168.916l1,.919a.775.775,0,0,0,.929.088l1.286-.794a.785.785,0,0,1,.681-.065l.006,0a.786.786,0,0,1,.482.488l.473,1.434a.776.776,0,0,0,.768.529l1.359-.06a.771.771,0,0,0,.719-.594l.346-1.469a.784.784,0,0,1,.439-.528l.006,0a.78.78,0,0,1,.683.005l1.35.678a.771.771,0,0,0,.916-.168l.92-1a.772.772,0,0,0,.088-.928l-.793-1.286a.785.785,0,0,1-.065-.681l0-.007a.78.78,0,0,1,.488-.481l1.431-.475a.774.774,0,0,0,.532-.767l-.059-1.359a.776.776,0,0,0-.6-.718l-1.468-.348a.773.773,0,0,1-.528-.437l0-.007a.789.789,0,0,1,0-.684l.678-1.349a.767.767,0,0,0-.168-.917l-1-.919a.774.774,0,0,0-.928-.088l-1.285.794a.781.781,0,0,1-.679.065l-.008,0a.788.788,0,0,1-.483-.488l-.474-1.433a.771.771,0,0,0-.766-.53l-1.359.06a.771.771,0,0,0-.719.594l-.348,1.469a.779.779,0,0,1-.437.528l-.006,0a.783.783,0,0,1-.686-.005l-1.347-.678a.773.773,0,0,0-.916.168l-.92,1A.77.77,0,0,0,12.757,202.892Zm6.541,1.657a2.363,2.363,0,1,1-2.256,2.464A2.366,2.366,0,0,1,19.3,204.549Z" fill="none" stroke="#fff" stroke-miterlimit="10" stroke-width="1"/></g><g transform="translate(935.745 -629.821)"><rect width="24" height="24" transform="translate(7.255 194.916)" fill="none"/></g></g></svg>