<svg xmlns="http://www.w3.org/2000/svg" xmlns:xlink="http://www.w3.org/1999/xlink" width="26" height="26" viewBox="0 0 26 26"><defs><linearGradient id="a" x1="1.187" y1="-0.167" x2="-0.262" y2="1.122" gradientUnits="objectBoundingBox"><stop offset="0.293" stop-color="#e03cff"/><stop offset="1" stop-color="#00b9ff"/></linearGradient></defs><g transform="translate(-1069.358 115.064)"><path d="M1079.161-93a10.911,10.911,0,0,1-7.707-10.429,10.905,10.905,0,0,1,10.9-10.9,10.905,10.905,0,0,1,10.905,10.9A10.911,10.911,0,0,1,1085.556-93l-3.2,3.2Z" fill="url(#a)"/><path d="M1086.382-104.6a9.987,9.987,0,0,0-1.093-2.024c-.155-.227-.317-.451-.482-.668l-2.312,4.052-2.046-3.917c-.225.3-.442.613-.645.937a8.708,8.708,0,0,0-.96,1.994,4.987,4.987,0,0,0-.256,1.335.508.508,0,0,1-.009.064v.246c.009.076.014.153.021.23a3.946,3.946,0,0,0,.7,1.955,4.043,4.043,0,0,0,2.612,1.708c.161.031.326.041.491.062l.059.008h.424c.095-.01.191-.018.287-.029a4.032,4.032,0,0,0,2.328-1.106,4.028,4.028,0,0,0,1.224-2.353c.022-.145.026-.288.041-.432a.282.282,0,0,1,.007-.043v-.256c-.01-.113-.018-.223-.03-.332A5.706,5.706,0,0,0,1086.382-104.6Z" fill="#fff"/><path d="M1082.556-105.741l1.234-2.163a12.063,12.063,0,0,0-.958-1.013,1.182,1.182,0,0,0-.136-.094h-.071a1.7,1.7,0,0,0-.151.113,12.409,12.409,0,0,0-1,1.075Z" fill="#fff"/><rect width="26" height="26" transform="translate(1069.358 -115.063)" fill="none"/></g></svg>