<svg xmlns="http://www.w3.org/2000/svg" width="77.944" height="19.844" viewBox="0 0 77.944 19.844"><g transform="translate(-13.16 -22.821)"><path d="M28.064,31.242a19.192,19.192,0,0,0-2.088-3.87c-.3-.434-.607-.857-.922-1.274l-4.415,7.737-3.907-7.481c-.429.581-.844,1.175-1.233,1.79a16.947,16.947,0,0,0-1.836,3.808,9.613,9.613,0,0,0-.485,2.547,1.253,1.253,0,0,1-.018.125v.469c.014.147.026.3.039.443a7.554,7.554,0,0,0,1.346,3.731,7.728,7.728,0,0,0,4.988,3.262c.309.061.624.078.938.119.038,0,.076.011.113.017h.809c.183-.02.366-.036.548-.059A7.84,7.84,0,0,0,28.725,36c.042-.274.05-.551.078-.826a.583.583,0,0,1,.013-.082V34.6c-.018-.212-.035-.422-.057-.633A10.816,10.816,0,0,0,28.064,31.242Z" fill="#fff"/><path d="M20.756,29.065l2.356-4.129A23.219,23.219,0,0,0,21.282,23a2.078,2.078,0,0,0-.259-.178h-.137a2.808,2.808,0,0,0-.286.219,23.79,23.79,0,0,0-1.921,2.048Z" fill="#fff"/><path d="M62.917,36.415V37.5a15.141,15.141,0,0,1-2.7,2.808,3.813,3.813,0,0,1-2.13.946,1.928,1.928,0,0,1-1.817-1.281,6.549,6.549,0,0,1-.6-2.8,5.114,5.114,0,0,1,.12-1.109,4.036,4.036,0,0,1,.284-.872q.163-.344.61-1.073,2.118-3.292,3.874-3.292c.6,0,.909.233.909.7a3.544,3.544,0,0,1-.59,1.49,6.576,6.576,0,0,1-1.05,1.445,23.149,23.149,0,0,0-1.69,1.743,1.737,1.737,0,0,0-.4,1.117,1.146,1.146,0,0,0,.4.894,1.509,1.509,0,0,0,1.042.358,3.017,3.017,0,0,0,1.542-.514A19.064,19.064,0,0,0,62.917,36.415ZM61.9,29.755a1.082,1.082,0,0,1-.709-.283.9.9,0,0,1-.336-.715,2.479,2.479,0,0,1,.628-1.46,1.71,1.71,0,0,1,1.3-.8,1.049,1.049,0,0,1,.743.275,1.029,1.029,0,0,1,.3.8,2.382,2.382,0,0,1-.61,1.416A1.7,1.7,0,0,1,61.9,29.755Z" fill="#fff"/><path d="M69.9,36.415V37.5a15.238,15.238,0,0,1-2.7,2.808,3.815,3.815,0,0,1-2.131.946,1.93,1.93,0,0,1-1.818-1.281,6.578,6.578,0,0,1-.595-2.8,4.935,4.935,0,0,1,.12-1.109,4.221,4.221,0,0,1,.281-.872c.11-.229.315-.586.611-1.073q2.116-3.292,3.876-3.292.906,0,.907.7a3.519,3.519,0,0,1-.588,1.49,6.509,6.509,0,0,1-1.051,1.445,23.362,23.362,0,0,0-1.69,1.743,1.737,1.737,0,0,0-.395,1.117,1.143,1.143,0,0,0,.4.894,1.5,1.5,0,0,0,1.042.358,3.034,3.034,0,0,0,1.543-.514A19.337,19.337,0,0,0,69.9,36.415Zm-1.014-6.66a1.076,1.076,0,0,1-.706-.283.9.9,0,0,1-.337-.715,2.474,2.474,0,0,1,.626-1.46,1.708,1.708,0,0,1,1.3-.8,1.058,1.058,0,0,1,.746.275,1.032,1.032,0,0,1,.3.8,2.377,2.377,0,0,1-.611,1.416A1.7,1.7,0,0,1,68.891,29.755Z" fill="#fff"/><path d="M76.891,36.415V37.5a15.237,15.237,0,0,1-2.7,2.808,3.813,3.813,0,0,1-2.13.946,1.928,1.928,0,0,1-1.818-1.281,6.579,6.579,0,0,1-.6-2.8,4.994,4.994,0,0,1,.119-1.109,4.208,4.208,0,0,1,.284-.872c.108-.229.313-.586.61-1.073q2.115-3.292,3.873-3.292c.607,0,.909.233.909.7a3.519,3.519,0,0,1-.588,1.49,6.644,6.644,0,0,1-1.049,1.445,23.4,23.4,0,0,0-1.693,1.743,1.731,1.731,0,0,0-.394,1.117,1.148,1.148,0,0,0,.4.894,1.512,1.512,0,0,0,1.045.358,3.013,3.013,0,0,0,1.54-.514A19.152,19.152,0,0,0,76.891,36.415Zm-1.013-6.66a1.083,1.083,0,0,1-.708-.283.894.894,0,0,1-.334-.715,2.472,2.472,0,0,1,.625-1.46,1.71,1.71,0,0,1,1.3-.8,1.055,1.055,0,0,1,.746.275,1.039,1.039,0,0,1,.3.8,2.375,2.375,0,0,1-.61,1.416A1.7,1.7,0,0,1,75.878,29.755Z" fill="#fff"/><path d="M83.565,36.444q-1.311,1.491-2.346,2.533a20.486,20.486,0,0,1-1.684,1.557,2.026,2.026,0,0,1-.887.514q-.384,0-.871-.626a5.7,5.7,0,0,1-.826-1.594,5.844,5.844,0,0,1-.343-1.966,4.287,4.287,0,0,1,1.4-2.913A12.841,12.841,0,0,1,81.2,31.513a6.512,6.512,0,0,1,2.682-.968,1.9,1.9,0,0,1,1.43.923q1.146-2.4,2.182-4.26a23.861,23.861,0,0,1,1.736-2.771q.7-.907,1-.909a.794.794,0,0,1,.6.32,1.076,1.076,0,0,1,.276.722,6.519,6.519,0,0,1-1.132,2.66Q88.84,29.115,87.736,30.9a32.069,32.069,0,0,0-1.891,3.523,7.82,7.82,0,0,0-.789,3.211q0,1.341.864,1.341a2.4,2.4,0,0,0,1.309-.589,27.222,27.222,0,0,0,2.25-1.973V37.5q-3.217,4.156-4.96,4.156a1.063,1.063,0,0,1-1-.536,3.28,3.28,0,0,1-.306-1.594A14.733,14.733,0,0,1,83.565,36.444Zm1.1-3.635a19.468,19.468,0,0,0-3.112,1.438,12.736,12.736,0,0,0-2.16,1.363,2.529,2.529,0,0,0-.582,1.117,4.627,4.627,0,0,0-.253,1.236.592.592,0,0,0,.149.417.482.482,0,0,0,.372.165.884.884,0,0,0,.477-.179,9.649,9.649,0,0,0,.856-.7q.589-.522.767-.671.253-.222,1.125-.961t1.273-1.154a4.34,4.34,0,0,0,.686-.931A3.79,3.79,0,0,0,84.667,32.809Z" fill="#fff"/><path d="M52.421,35.9a3.565,3.565,0,0,0-1.039-1.148,6,6,0,0,0-1.555-.822,10.067,10.067,0,0,0-1.806-.464,14.67,14.67,0,0,1-5.213-1.811,1.371,1.371,0,0,1-.442-.471,1.256,1.256,0,0,1-.235-.691,7.677,7.677,0,0,1,.408-2.441,5.225,5.225,0,0,1,1.044-1.916,8.4,8.4,0,0,1,3.686-2,19.5,19.5,0,0,1,6-.858,11.978,11.978,0,0,1,3.076.305q1.086.3,1.086.939a3.666,3.666,0,0,1-.283,1.6,1.749,1.749,0,0,1-.61.754,9.414,9.414,0,0,1-1.139.5,11.769,11.769,0,0,0-1.516.637,11.531,11.531,0,0,0-1.1.636,1.743,1.743,0,0,1-.566.3c-.093,0-.14-.036-.14-.11,0-.157.165-.394.492-.712a4.778,4.778,0,0,1,1.21-.837q.76-.4.761-.512c0-.12-.282-.18-.844-.18a23.006,23.006,0,0,0-4.729.457,11.3,11.3,0,0,0-3.423,1.2q-1.254.747-1.253,1.522a.7.7,0,0,0,.519.684c.345.133,1.11.357,2.29.671a22.366,22.366,0,0,1,3.167,1.078,10.089,10.089,0,0,1,2.973,1.784,2.819,2.819,0,0,1,.967,2.075,3.636,3.636,0,0,1-.379,1.584,4.745,4.745,0,0,1-1.114,1.459,6.365,6.365,0,0,1-1.687,1.092,13.674,13.674,0,0,1-2.052.65,22.6,22.6,0,0,1-2.685.478,23.326,23.326,0,0,1-2.76.172,13.517,13.517,0,0,1-3.891-.456q-1.474-.458-1.475-1.383a3.1,3.1,0,0,1,.5-1.293A2.645,2.645,0,0,1,39.834,37.2a3.75,3.75,0,0,1,1.147-.27c.371-.023.555.021.555.131a.115.115,0,0,1-.042.083.377.377,0,0,1-.1.07l-.11.054c-.184.074-.335.132-.449.173a1.776,1.776,0,0,0-.277.125.192.192,0,0,0-.1.173q0,.29,2.863.29a37.632,37.632,0,0,0,4.08-.179,11.384,11.384,0,0,0,2.806-.65A7.87,7.87,0,0,0,52.421,35.9Z" fill="#fff"/></g></svg>