<svg xmlns="http://www.w3.org/2000/svg" width="275.245" height="95.569" viewBox="0 0 275.245 95.569">
  <g id="グループ_3" data-name="グループ 3" transform="translate(-214.059 -297.949)">
    <g id="グループ_1" data-name="グループ 1">
      <path id="パス_1" data-name="パス 1" d="M342.766,366.254v5.655q-7.515,9.683-14.019,14.6t-11.076,4.918q-6.352,0-9.449-6.66a34.094,34.094,0,0,1-3.1-14.561,26.121,26.121,0,0,1,.62-5.77,21.632,21.632,0,0,1,1.471-4.532q.852-1.781,3.176-5.576,11-17.117,20.137-17.117,4.723,0,4.725,3.641,0,2.478-3.06,7.745a34.066,34.066,0,0,1-5.46,7.512,122.65,122.65,0,0,0-8.791,9.062,9.028,9.028,0,0,0-2.052,5.809,5.963,5.963,0,0,0,2.091,4.648,7.861,7.861,0,0,0,5.422,1.858,15.677,15.677,0,0,0,8.016-2.672A98.742,98.742,0,0,0,342.766,366.254Zm-5.267-34.62a5.621,5.621,0,0,1-3.679-1.472,4.657,4.657,0,0,1-1.743-3.718q0-3.406,3.253-7.59t6.738-4.182a5.485,5.485,0,0,1,3.873,1.433,5.367,5.367,0,0,1,1.549,4.143q0,3.332-3.175,7.358T337.5,331.634Z" fill="#fff"/>
      <path id="パス_2" data-name="パス 2" d="M379.09,366.254v5.655q-7.514,9.683-14.019,14.6T354,391.426q-6.353,0-9.449-6.66a34.093,34.093,0,0,1-3.1-14.561,26.121,26.121,0,0,1,.619-5.77,21.685,21.685,0,0,1,1.472-4.532q.85-1.781,3.175-5.576,11-17.117,20.138-17.117,4.724,0,4.725,3.641,0,2.478-3.06,7.745a34.1,34.1,0,0,1-5.46,7.512,122.213,122.213,0,0,0-8.791,9.062,9.023,9.023,0,0,0-2.053,5.809,5.964,5.964,0,0,0,2.092,4.648,7.86,7.86,0,0,0,5.421,1.858,15.677,15.677,0,0,0,8.017-2.672A98.744,98.744,0,0,0,379.09,366.254Zm-5.266-34.62a5.619,5.619,0,0,1-3.679-1.472,4.657,4.657,0,0,1-1.743-3.718q0-3.406,3.253-7.59t6.738-4.182a5.489,5.489,0,0,1,3.873,1.433,5.366,5.366,0,0,1,1.549,4.143q0,3.332-3.176,7.358T373.824,331.634Z" fill="#fff"/>
      <path id="パス_3" data-name="パス 3" d="M415.416,366.254v5.655q-7.515,9.683-14.02,14.6t-11.075,4.918q-6.353,0-9.449-6.66a34.093,34.093,0,0,1-3.1-14.561,26.06,26.06,0,0,1,.62-5.77,21.631,21.631,0,0,1,1.471-4.532q.852-1.781,3.176-5.576,11-17.117,20.137-17.117,4.723,0,4.725,3.641,0,2.478-3.06,7.745a34.066,34.066,0,0,1-5.46,7.512,122.429,122.429,0,0,0-8.791,9.062,9.028,9.028,0,0,0-2.052,5.809,5.963,5.963,0,0,0,2.091,4.648,7.861,7.861,0,0,0,5.422,1.858,15.677,15.677,0,0,0,8.016-2.672A98.739,98.739,0,0,0,415.416,366.254Zm-5.267-34.62a5.619,5.619,0,0,1-3.679-1.472,4.657,4.657,0,0,1-1.743-3.718q0-3.406,3.253-7.59t6.738-4.182a5.485,5.485,0,0,1,3.873,1.433,5.367,5.367,0,0,1,1.549,4.143q0,3.332-3.176,7.358T410.149,331.634Z" fill="#fff"/>
      <path id="パス_4" data-name="パス 4" d="M450.114,366.41q-6.818,7.744-12.2,13.166a106.934,106.934,0,0,1-8.752,8.094q-3.369,2.671-4.608,2.672-2.016,0-4.532-3.253a29.611,29.611,0,0,1-4.3-8.287,30.434,30.434,0,0,1-1.781-10.224q0-7.512,7.28-15.142A66.661,66.661,0,0,1,437.8,340.773q9.294-5.034,13.941-5.034,3.795,0,7.435,4.8,5.964-12.469,11.347-22.151a122.354,122.354,0,0,1,9.023-14.407q3.64-4.723,5.189-4.724a4.132,4.132,0,0,1,3.138,1.665,5.614,5.614,0,0,1,1.432,3.757q0,4.027-5.886,13.824T471.8,337.6a165.548,165.548,0,0,0-9.836,18.317q-4.105,9.024-4.1,16.69,0,6.972,4.492,6.971,2.71,0,6.816-3.059a144.274,144.274,0,0,0,11.7-10.263v5.655q-16.729,21.609-25.791,21.609a5.542,5.542,0,0,1-5.228-2.789q-1.588-2.787-1.588-8.287A76.068,76.068,0,0,1,450.114,366.41Zm5.731-18.9a101.2,101.2,0,0,0-16.187,7.474q-9.3,5.153-11.231,7.087-1.7,1.55-3.02,5.809a24.049,24.049,0,0,0-1.317,6.429,3.1,3.1,0,0,0,.774,2.168,2.5,2.5,0,0,0,1.937.852,4.64,4.64,0,0,0,2.478-.929,48.719,48.719,0,0,0,4.453-3.64q3.06-2.71,3.989-3.486,1.317-1.161,5.848-4.995t6.622-6a22.722,22.722,0,0,0,3.563-4.841A19.968,19.968,0,0,0,455.845,347.511Z" fill="#fff"/>
    </g>
    <g id="グループ_2" data-name="グループ 2">
      <path id="パス_5" data-name="パス 5" d="M288.191,363.6a18.506,18.506,0,0,0-5.393-5.968,31.364,31.364,0,0,0-8.089-4.278,52.408,52.408,0,0,0-9.383-2.409,76.09,76.09,0,0,1-27.108-9.419,7.124,7.124,0,0,1-2.3-2.445,6.6,6.6,0,0,1-1.222-3.6,39.935,39.935,0,0,1,2.121-12.691,27.278,27.278,0,0,1,5.429-9.959q5.321-5.967,19.162-10.426a101.439,101.439,0,0,1,31.17-4.458q10.355,0,16,1.582t5.644,4.889a19.054,19.054,0,0,1-1.473,8.341,9.013,9.013,0,0,1-3.164,3.919,49.486,49.486,0,0,1-5.933,2.624,61.407,61.407,0,0,0-7.873,3.308,60.465,60.465,0,0,0-5.717,3.307,9.1,9.1,0,0,1-2.947,1.583q-.72,0-.719-.576,0-1.221,2.552-3.7a24.946,24.946,0,0,1,6.292-4.35q3.952-2.085,3.954-2.661,0-.933-4.386-.934a119.638,119.638,0,0,0-24.59,2.372q-11.289,2.373-17.8,6.256t-6.507,7.909a3.653,3.653,0,0,0,2.7,3.56q2.7,1.043,11.9,3.487a115.918,115.918,0,0,1,16.465,5.609q10.425,4.458,15.46,9.276t5.033,10.785a18.954,18.954,0,0,1-1.978,8.233,24.545,24.545,0,0,1-5.788,7.586,33.28,33.28,0,0,1-8.772,5.68,71.982,71.982,0,0,1-10.677,3.38,117.033,117.033,0,0,1-13.95,2.481,121.4,121.4,0,0,1-14.344.9q-12.585,0-20.241-2.373t-7.658-7.19q0-2.157,2.589-6.723a13.83,13.83,0,0,1,6.112-6.148,19.562,19.562,0,0,1,5.967-1.4q2.875-.179,2.876.683a.621.621,0,0,1-.215.431,1.915,1.915,0,0,1-.5.36l-.575.288q-1.438.576-2.337.9a8.336,8.336,0,0,0-1.438.648,1,1,0,0,0-.539.9q0,1.509,14.884,1.509a195.637,195.637,0,0,0,21.211-.934,58.86,58.86,0,0,0,14.6-3.38A40.822,40.822,0,0,0,288.191,363.6Z" fill="#fff"/>
    </g>
  </g>
</svg>
