<svg xmlns="http://www.w3.org/2000/svg" width="20" height="20" viewBox="0 0 20 20"><g transform="translate(-189.628 -147.67)"><path d="M205.818,156.356a16.727,16.727,0,0,0-1.826-3.385c-.26-.381-.531-.75-.807-1.116l-3.863,6.771L195.9,152.08c-.376.508-.739,1.027-1.079,1.566a14.846,14.846,0,0,0-1.605,3.331,8.382,8.382,0,0,0-.426,2.23,1.015,1.015,0,0,1-.015.109v.411c.013.128.023.257.035.386a6.6,6.6,0,0,0,1.176,3.265,6.761,6.761,0,0,0,4.366,2.854c.269.054.545.069.821.105.032,0,.066.009.1.015h.708c.16-.018.32-.032.48-.052a6.86,6.86,0,0,0,5.934-5.78c.038-.239.045-.481.069-.721,0-.025.008-.049.012-.072V159.3c-.016-.187-.03-.37-.05-.555A9.451,9.451,0,0,0,205.818,156.356Z" fill="#e4e4e4"/><path d="M199.424,154.451l2.062-3.612a20.467,20.467,0,0,0-1.6-1.694,1.725,1.725,0,0,0-.227-.157h-.12a2.6,2.6,0,0,0-.251.192,20.9,20.9,0,0,0-1.68,1.792Z" fill="#e4e4e4"/><rect width="20" height="20" transform="translate(189.628 147.67)" fill="none"/></g></svg>