<svg xmlns="http://www.w3.org/2000/svg" width="16" height="16" viewBox="0 0 16 16"><g transform="translate(-1190 390.467)"><g transform="translate(739.838 -334.01)"><rect width="16" height="16" transform="translate(450.162 -56.457)" fill="none"/></g><g transform="translate(739.838 -334.01)"><path d="M458.162-52.719a3.972,3.972,0,0,0-3.972,3.971,3.972,3.972,0,0,0,3.972,3.971,3.972,3.972,0,0,0,3.971-3.971A3.972,3.972,0,0,0,458.162-52.719Z" fill="#4b4b4b"/><rect width="1.156" height="2.227" transform="translate(457.582 -56.121)" fill="#4b4b4b"/><rect width="1.156" height="2.227" transform="translate(457.582 -43.02)" fill="#4b4b4b"/><rect width="1.157" height="2.226" transform="matrix(0.707, -0.708, 0.708, 0.707, 452.539, -53.551)" fill="#4b4b4b"/><path d="M461.391-44.117l1.576,1.574.816-.818-1.572-1.574Z" fill="#4b4b4b"/><rect width="2.227" height="1.156" transform="translate(450.789 -49.326)" fill="#4b4b4b"/><path d="M463.307-49.324v1.154h2.229v-1.156Z" fill="#4b4b4b"/><path d="M452.539-43.361l.816.818,1.574-1.574-.816-.818Z" fill="#4b4b4b"/><path d="M463.783-53.553l-.816-.816L461.391-52.8l.82.818Z" fill="#4b4b4b"/></g></g></svg>