<svg xmlns="http://www.w3.org/2000/svg" width="24" height="24" viewBox="0 0 24 24"><g transform="translate(-943 562)"><g transform="translate(935.745 -629.821)"><path d="M21.655,75.821a2.4,2.4,0,0,1-2.4,2.4h0a2.4,2.4,0,0,1-2.4-2.4h0a2.4,2.4,0,0,1,2.4-2.4h0a2.4,2.4,0,0,1,2.4,2.4Z" fill="none" stroke="#fff" stroke-miterlimit="10" stroke-width="1"/><line y2="3.6" transform="translate(19.255 78.221)" fill="none" stroke="#fff" stroke-miterlimit="10" stroke-width="1"/><path d="M21.655,84.221a2.4,2.4,0,0,1-2.4,2.4h0a2.4,2.4,0,0,1-2.4-2.4h0a2.4,2.4,0,0,1,2.4-2.4h0a2.4,2.4,0,0,1,2.4,2.4Z" fill="none" stroke="#fff" stroke-miterlimit="10" stroke-width="1"/><line y2="5.2" transform="translate(19.255 86.621)" fill="none" stroke="#fff" stroke-miterlimit="10" stroke-width="1"/><line y2="5.6" transform="translate(19.255 67.821)" fill="none" stroke="#fff" stroke-miterlimit="10" stroke-width="1"/></g><g transform="translate(935.745 -629.821)"><rect width="24" height="24" transform="translate(7.255 67.821)" fill="none"/></g></g></svg>